<?xml version="1.0" standalone="no"?>
<!DOCTYPE svg PUBLIC "-//W3C//DTD SVG 20010904//EN"
 "http://www.w3.org/TR/2001/REC-SVG-20010904/DTD/svg10.dtd">
<svg version="1.0" xmlns="http://www.w3.org/2000/svg"
 width="76.000000pt" height="65.000000pt" viewBox="0 0 76.000000 65.000000"
 preserveAspectRatio="xMidYMid meet">
<metadata>
Created by potrace 1.16, written by Peter Selinger 2001-2019
</metadata>
<g transform="translate(0.000000,65.000000) scale(0.100000,-0.100000)"
fill="#000000" stroke="none">
<path d="M167 463 c24 -2 62 -2 85 0 24 2 5 4 -42 4 -47 0 -66 -2 -43 -4z"/>
<path d="M143 436 c19 -14 24 -71 7 -81 -6 -4 -17 -1 -25 5 -10 9 -15 9 -15 1
0 -6 11 -18 25 -27 32 -21 68 -79 68 -110 0 -16 5 -24 17 -24 13 0 19 11 24
38 4 25 20 55 46 84 38 44 51 78 30 78 -5 0 -10 -9 -10 -21 0 -39 -25 -13 -28
29 l-3 42 -77 0 c-66 -1 -75 -3 -59 -14z m123 -38 c0 -18 3 -40 7 -48 4 -9 -4
-27 -19 -45 l-26 -30 6 40 c12 79 12 80 -10 83 -24 3 -41 -25 -24 -42 5 -5 10
-26 10 -45 l0 -36 -25 30 c-14 18 -22 36 -18 45 4 8 7 30 7 48 0 31 0 32 45
32 45 0 46 -1 47 -32z m-33 -14 c9 -9 -4 -35 -14 -28 -5 3 -9 12 -9 20 0 14
12 19 23 8z"/>
<path d="M610 400 c0 -27 5 -50 10 -50 6 0 10 23 10 50 0 28 -4 50 -10 50 -5
0 -10 -22 -10 -50z"/>
<path d="M360 384 c0 -21 4 -33 10 -29 6 3 10 15 10 26 0 10 5 19 10 19 6 0
10 5 10 10 0 6 -9 10 -20 10 -16 0 -20 -7 -20 -36z"/>
<path d="M427 413 c-11 -10 -8 -51 3 -58 6 -4 10 5 10 19 0 16 6 26 15 26 9 0
15 -9 15 -25 0 -14 5 -25 10 -25 14 0 13 43 -2 58 -13 13 -41 16 -51 5z"/>
<path d="M520 405 c-21 -25 -8 -50 28 -53 31 -3 32 -2 32 32 0 31 -3 36 -24
36 -13 0 -29 -7 -36 -15z m40 -19 c0 -21 -21 -31 -30 -15 -5 7 -6 17 -4 21 9
14 34 9 34 -6z"/>
<path d="M314 275 c-8 -13 -13 -33 -10 -43 8 -23 50 -44 71 -36 24 9 18 20
-11 19 -30 0 -50 24 -41 49 4 10 18 16 37 16 18 0 29 4 25 10 -12 19 -54 10
-71 -15z"/>
<path d="M423 250 c0 -30 2 -43 4 -27 2 15 2 39 0 55 -2 15 -4 2 -4 -28z"/>
<path d="M551 254 c-1 -53 12 -70 43 -58 35 13 23 74 -14 74 -10 0 -21 8 -23
18 -3 9 -5 -6 -6 -34z m49 -18 c0 -8 -5 -18 -11 -22 -14 -8 -33 11 -25 25 10
16 36 13 36 -3z"/>
<path d="M500 246 c-6 -38 -30 -47 -30 -12 0 14 -4 26 -10 26 -17 0 -11 -49 8
-59 28 -15 44 2 40 40 l-4 34 -4 -29z"/>
</g>
</svg>
